<svg xmlns="http://www.w3.org/2000/svg" width="566" height="160" viewBox="0 0 566 160">
<title>BIKAI — официальный логотип: эмблема + слово</title>
<g transform="scale(0.127592)">
<path fill="#E73336" fill-rule="evenodd" d="M 68.2 619.8 a 555.7 555.7 0 1 0 1111.4 0 a 555.7 555.7 0 1 0 -1111.4 0 Z M254.94 228.19 C255.94 228.12 256.94 228.05 257.96 227.98 C262.89 229.63 264.51 233.65 267.00 238.00 C267.46 238.77 267.92 239.53 268.39 240.32 C269.31 241.87 270.22 243.43 271.13 244.99 C277.46 255.82 284.43 266.01 292.00 276.00 C292.48 276.63 292.96 277.26 293.45 277.91 C300.30 286.89 307.54 295.52 315.00 304.00 C315.80 304.92 316.60 305.83 317.43 306.77 C323.78 313.85 330.48 320.58 337.19 327.31 C337.66 327.79 338.13 328.27 338.62 328.76 C344.24 334.39 349.91 339.87 356.00 345.00 C356.32 345.27 356.32 345.27 357.95 346.66 C373.01 359.33 388.64 371.06 405.00 382.00 C405.67 382.45 406.33 382.89 407.02 383.35 C470.55 425.82 549.28 458.60 626.03 463.37 C626.91 463.43 627.79 463.48 628.70 463.54 C629.46 463.58 630.22 463.63 631.01 463.67 C633.00 464.00 633.00 464.00 636.00 466.00 C632.92 466.49 629.83 466.96 626.75 467.44 C625.90 467.57 625.04 467.71 624.16 467.85 C610.47 469.94 596.89 470.24 583.06 470.25 C582.09 470.25 581.11 470.25 580.11 470.25 C563.57 470.23 547.38 469.45 531.00 467.00 C530.43 466.91 530.43 466.91 527.52 466.48 C453.06 454.94 379.39 424.04 319.00 379.00 C317.87 378.17 316.73 377.33 315.60 376.50 C308.89 371.53 302.40 366.35 296.00 361.00 C295.49 360.58 294.98 360.15 294.46 359.72 C285.83 352.53 277.69 344.98 269.79 337.00 C268.04 335.23 266.29 333.47 264.53 331.71 C258.81 325.98 253.20 320.21 248.00 314.00 C247.50 313.41 247.00 312.82 246.48 312.21 C237.84 301.99 230.02 291.28 222.50 280.21 C221.18 278.27 219.84 276.35 218.49 274.43 C218.16 273.94 218.16 273.94 216.50 271.50 C215.95 270.71 215.41 269.91 214.84 269.09 C214.00 267.00 214.00 267.00 214.77 265.07 C215.96 263.07 217.17 261.54 218.77 259.86 C219.32 259.27 219.87 258.68 220.44 258.08 C221.04 257.45 221.64 256.83 222.25 256.19 C223.51 254.85 224.78 253.52 226.04 252.18 C226.69 251.49 227.35 250.81 228.02 250.10 C229.98 248.02 231.93 245.92 233.86 243.82 C234.48 243.15 235.10 242.48 235.74 241.78 C236.93 240.50 238.11 239.21 239.29 237.92 C248.09 228.43 248.09 228.43 254.94 228.19 Z M149.00 357.00 C154.25 357.76 156.50 360.17 159.88 364.06 C160.12 364.34 160.12 364.34 161.36 365.72 C163.46 368.08 165.53 370.45 167.58 372.85 C172.60 378.69 177.98 384.13 183.44 389.56 C184.34 390.47 185.24 391.38 186.17 392.31 C191.29 397.42 196.49 402.33 202.00 407.00 C203.06 407.91 204.11 408.83 205.17 409.74 C212.60 416.07 220.19 422.14 228.00 428.00 C228.69 428.52 229.39 429.05 230.10 429.59 C254.96 448.37 281.47 464.46 309.00 479.00 C309.91 479.48 310.82 479.97 311.76 480.47 C340.30 495.53 370.34 506.72 401.07 516.39 C402.84 516.95 404.62 517.52 406.40 518.08 C449.92 531.84 496.40 539.02 542.00 540.00 C543.00 540.02 544.01 540.04 545.04 540.07 C594.14 540.96 642.66 535.17 690.00 522.00 C692.05 521.44 694.09 520.88 696.14 520.32 C697.07 520.07 698.00 519.82 698.95 519.56 C699.63 519.37 700.30 519.19 701.00 519.00 C698.64 521.47 696.46 523.52 693.48 525.19 C692.80 525.57 692.12 525.95 691.42 526.35 C690.68 526.75 689.95 527.15 689.19 527.56 C688.40 527.99 687.62 528.42 686.81 528.86 C641.55 553.31 592.18 566.87 541.00 571.00 C539.91 571.09 538.83 571.19 537.71 571.28 C526.21 572.17 514.72 572.24 503.19 572.25 C502.13 572.25 501.08 572.25 499.99 572.25 C481.17 572.23 462.67 571.34 444.00 569.00 C443.34 568.92 442.67 568.84 441.99 568.75 C409.46 564.68 377.29 557.78 346.00 548.00 C344.81 547.63 343.63 547.26 342.41 546.88 C276.12 526.08 213.21 493.56 159.00 450.00 C158.07 449.25 157.13 448.50 156.17 447.73 C153.43 445.50 150.71 443.26 148.00 441.00 C147.46 440.55 146.92 440.10 146.36 439.64 C142.18 436.16 138.07 432.61 134.00 429.00 C133.40 428.47 132.81 427.95 132.19 427.41 C130.46 425.86 128.76 424.28 127.06 422.69 C126.80 422.45 126.80 422.45 125.47 421.27 C122.91 418.80 122.02 417.43 121.88 413.84 C123.11 408.57 125.63 403.68 127.94 398.81 C128.18 398.29 128.18 398.29 129.42 395.63 C135.56 382.55 141.90 369.58 149.00 357.00 Z M1008.82 435.04 C1012.07 436.02 1014.70 436.28 1018.10 436.32 C1018.69 436.33 1018.69 436.33 1021.68 436.38 C1022.93 436.39 1024.19 436.40 1025.49 436.41 C1026.14 436.42 1026.14 436.42 1029.43 436.47 C1032.88 436.52 1036.32 436.56 1039.76 436.60 C1043.28 436.64 1046.80 436.69 1050.32 436.74 C1057.21 436.84 1064.11 436.92 1071.00 437.00 C1068.54 439.56 1066.17 441.18 1063.05 442.90 C1062.05 443.45 1061.05 444.01 1060.02 444.58 C1059.48 444.88 1059.48 444.88 1056.75 446.38 C1054.47 447.64 1052.18 448.91 1049.90 450.18 C1049.32 450.50 1048.74 450.82 1048.14 451.15 C1042.53 454.25 1036.95 457.40 1031.38 460.56 C1025.62 463.82 1019.86 467.08 1014.08 470.32 C981.04 488.84 949.01 509.07 925.31 539.33 C923.81 541.24 922.30 543.13 920.79 545.03 C912.33 555.68 904.51 566.66 897.00 578.00 C896.67 578.49 896.67 578.49 895.02 580.99 C885.40 595.52 876.04 610.21 866.85 625.02 C856.67 641.42 846.40 657.75 836.00 674.00 C835.54 674.72 835.08 675.43 834.61 676.17 C821.88 696.08 808.86 715.86 795.00 735.00 C794.45 735.76 793.91 736.51 793.35 737.29 C785.69 747.89 777.76 758.21 769.42 768.28 C768.15 769.81 766.92 771.36 765.68 772.91 C760.29 779.67 754.47 785.96 748.54 792.24 C746.33 794.58 744.15 796.93 742.00 799.32 C725.85 817.25 707.54 833.36 688.02 847.53 C686.69 848.50 685.37 849.47 684.04 850.45 C664.30 865.04 642.92 877.03 621.00 888.00 C620.28 888.37 619.56 888.73 618.82 889.11 C572.58 912.58 519.67 924.61 468.00 926.00 C467.38 926.02 467.38 926.02 464.23 926.12 C391.71 927.36 319.55 903.30 258.00 866.00 C257.19 865.51 256.39 865.03 255.56 864.52 C230.77 849.45 207.81 831.67 186.38 812.16 C184.82 810.75 183.26 809.35 181.69 807.97 C171.16 798.69 161.02 788.76 152.00 778.00 C151.06 776.91 150.11 775.82 149.17 774.73 C143.59 768.29 138.12 761.81 133.00 755.00 C133.33 754.34 133.66 753.68 134.00 753.00 C134.36 753.22 134.36 753.22 136.19 754.35 C156.99 767.19 178.05 779.40 200.06 790.06 C202.06 791.03 204.05 792.03 206.04 793.03 C283.70 831.50 377.00 849.10 461.00 822.00 C490.82 811.70 519.45 797.19 542.85 775.72 C543.34 775.28 543.34 775.28 545.79 773.03 C546.52 772.36 547.25 771.69 548.00 771.00 C546.88 771.12 545.75 771.23 544.60 771.35 C540.35 771.79 536.10 772.22 531.84 772.65 C530.02 772.84 528.20 773.03 526.37 773.22 C444.93 781.63 362.04 772.54 91.27 642.70 C90.77 642.26 90.27 641.83 89.75 641.39 C88.00 640.00 88.00 640.00 85.63 638.59 C82.25 636.30 79.56 634.20 78.51 630.09 C77.71 624.18 77.99 618.25 78.19 612.31 C78.22 610.40 78.25 608.48 78.28 606.56 C78.76 583.87 81.40 561.39 85.00 539.00 C89.44 540.64 92.02 542.63 95.44 545.94 C101.37 551.55 107.64 556.56 114.11 561.53 C116.01 563.01 117.87 564.51 119.73 566.03 C149.79 590.34 183.82 610.17 218.00 628.00 C218.91 628.48 219.82 628.96 220.77 629.45 C292.43 666.87 372.96 691.84 522.81 707.19 C523.66 707.19 524.50 707.19 525.37 707.19 C595.48 707.05 665.57 690.94 721.00 646.00 C721.93 645.26 722.86 644.53 723.82 643.77 C733.77 635.78 743.06 627.11 752.00 618.00 C754.58 615.41 757.18 612.83 759.80 610.27 C765.40 604.79 770.66 599.23 775.54 593.08 C777.39 590.76 779.27 588.47 781.18 586.20 C789.91 575.78 798.04 565.02 806.00 554.00 C807.12 552.46 808.23 550.93 809.35 549.39 C815.69 540.65 821.95 531.85 828.17 523.01 C831.97 517.62 835.79 512.26 839.64 506.90 C841.16 504.78 842.68 502.65 844.20 500.52 C852.84 488.42 861.84 476.89 872.00 466.00 C872.82 465.11 873.64 464.23 874.48 463.32 C909.00 427.32 962.53 417.94 1008.82 435.04 Z"/>
</g>
<g transform="translate(196.00,0) scale(0.398010) translate(-0.00,-0.00)">
<path d="M0 0 C14.550937500000003 -0.041250000000005116 14.550937500000003 -0.041250000000005116 88.1875 -0.25 C97.36199951171875 -0.28641601562499375 106.5364990234375 -0.3228320312500017 115.989013671875 -0.3603515625 C127.22912597656253 -0.37841796875 127.22912597656253 -0.37841796875 132.4982452392578 -0.38177490234375 C136.16277335860136 -0.38548768598145955 139.8270675264555 -0.40042200773314107 143.4915313720703 -0.42230224609375 C148.1782384307197 -0.4499118435985423 152.86460945415004 -0.45793293881685315 157.55139029026031 -0.4522891044616699 C159.26363753386462 -0.45346777968195795 160.97589755508403 -0.4612969111846894 162.68807446956635 -0.47686052322387695 C176.65248176996957 -0.5978119698278732 188.67072371973052 1.1045796506629415 200 10 C200.698671875 10.501445312499996 201.39734375 11.002890624999992 202.1171875 11.51953125 C208.18474756266968 16.22475235520234 211.01960737092145 22.0330949371221 214 29 C214.3324169921875 29.74322509765625 214.664833984375 30.4864501953125 215.00732421875 31.252197265625 C219.38869245428174 43.38016074100858 218.3131850587966 57.895527022353434 218.2607421875 70.585693359375 C218.24988491401086 73.72073107936006 218.26076976043475 76.85521244298087 218.2734375 79.990234375 C218.27211803069395 81.9973970890079 218.26956005822373 84.00455945965467 218.265625 86.01171875 C218.26967346191407 86.94191329956055 218.27372192382813 87.87210784912111 218.27789306640625 88.83049011230469 C218.244859041463 93.38361831864103 218.01572514810584 96.82583900421218 216 101 C216.3384650741259 104.0748691479912 217.5476568306765 106.00845670213153 219.3125 108.5 C224.31959189778956 116.23559414933862 227.12092392325494 125.88372223000997 227.12939453125 135.090576171875 C227.13254669189453 136.07897994995116 227.13569885253906 137.06738372802735 227.13894653320313 138.0857391357422 C227.1379344177246 138.6149320220947 227.1379344177246 138.6149320220947 227.1328125 141.29296875 C227.1337692260742 142.39417556762695 227.13472595214844 143.49538238525392 227.13571166992188 144.6299591064453 C227.13639154464536 146.95911719891856 227.13455067933097 149.2882771989815 227.13037109375 151.617431640625 C227.1250457242092 155.15710794949814 227.13030942636112 158.69665588921234 227.13671875 162.236328125 C227.13605743532065 164.50520861058106 227.13477517192345 166.7740890169364 227.1328125 169.04296875 C227.13483673095703 170.09123336791993 227.13686096191407 171.13949798583985 227.13894653320313 172.2195281982422 C227.08365728872832 189.83268542254342 227.08365728872832 189.83268542254342 223.625 196.75 C223.1802734375 197.65878906249998 222.735546875 198.567578125 222.27734375 199.50390625 C221.8558203125 200.32761718749998 221.434296875 201.15132812499996 221 202 C220.6712890625 202.66902343749996 220.342578125 203.33804687500003 220.00390625 204.02734375 C219.3494038026839 205.35826977923125 218.6775104269944 206.68063758953724 218 208 C217.34 208 216.68 208 216 208 C215.73703125 208.590390625 215.4740625 209.18078125 215.203125 209.7890625 C210.09812403127313 219.17033051395913 198.5326516694322 222.8224494435226 189 226 C186.47861724508087 226.09342573916592 183.98533196857485 226.13036350304714 181.4640655517578 226.12025451660156 C180.69157974243163 226.121110534668 179.91909393310547 226.12196655273436 179.12319946289063 226.1228485107422 C176.51871455499486 226.1245076830046 173.91429351509296 226.1189735970264 171.309814453125 226.113525390625 C169.41712286173853 226.11321916188024 167.5244311560099 226.11335236573927 165.63173961639404 226.11389064788818 C160.55375657957208 226.11411681880907 155.47579700916722 226.10831229774203 150.39781951904297 226.10128021240234 C145.63642806293421 226.09559397545627 140.87504237411497 226.09531756504566 136.1136474609375 226.0946044921875 C122.17992852076867 226.0893528587718 108.24621396597917 226.07539176289913 94.3125 226.0625 C78.75093749999999 226.0521875 78.75093749999999 226.0521875 0 226 C0 151.42000000000002 0 76.84 0 0 Z M49 48 C47.47735890686525 51.0452821862695 47.83714462607709 54.221452463655254 47.83203125 57.5625 C47.8287028503418 58.30959228515624 47.8253744506836 59.056684570312484 47.82194519042969 59.826416015625 C47.81688033955453 61.40673201170003 47.81453672884075 62.9870587082755 47.814697265625 64.5673828125 C47.81250865999124 66.9904124274766 47.794342990312856 69.41298835532666 47.775390625 71.8359375 C47.77245708183263 73.36979010492084 47.77047202439927 74.90364487834037 47.76953125 76.4375 C47.762345733642576 77.16461181640625 47.75516021728515 77.8917236328125 47.74775695800781 78.640869140625 C47.77117197407719 83.77117197407719 47.77117197407719 83.77117197407719 50 86 C52.070534706115694 86.24888896942139 52.070534706115694 86.24888896942139 54.67555236816406 86.24723815917969 C55.66131256103516 86.25143264770509 56.64707275390626 86.25562713623046 57.66270446777344 86.25994873046875 C58.74797927856446 86.25432922363282 59.83325408935548 86.24870971679687 60.951416015625 86.242919921875 C62.09126953124999 86.24481826782227 63.231123046875 86.24671661376954 64.405517578125 86.24867248535156 C68.18838287394226 86.25238938364475 71.97105790213611 86.24166362100397 75.75390625 86.23046875 C78.37182085546846 86.22927743883366 80.98973589287519 86.22882368372376 83.60765075683594 86.22908020019531 C89.09970486180617 86.22814315998903 94.59170377042653 86.2194531788445 100.083740234375 86.205810546875 C106.44124889428099 86.19007678208203 112.79869711141404 86.1848126864571 119.15622383356094 86.18554610013962 C125.26339373323404 86.18615557954155 131.37054064738064 86.18095025611044 137.47770500183105 86.17275428771973 C140.0809612816454 86.16956091718367 142.68421935947742 86.16759866380775 145.28747749328613 86.16686058044434 C148.91767585283657 86.16470454741682 152.54779667218503 86.1559765790937 156.177978515625 86.145263671875 C156.72162803649903 86.14549026489257 156.72162803649903 86.14549026489257 159.4728240966797 86.14663696289063 C159.96429428100586 86.14450447082521 159.96429428100586 86.14450447082521 162.45143127441406 86.13371276855469 C163.31071007728576 86.13203692436218 164.16998888015746 86.13036108016968 165.05530643463135 86.12863445281982 C167 86 167 86 168 85 C168 72.78999999999999 168 60.579999999999984 168 48 C128.73 48 89.46 48 49 48 Z M48 137 C47.89897887242948 139.71556227263625 47.860297231706966 142.40514538455116 47.8671875 145.12109375 C47.86623077392578 145.93618911743164 47.86527404785156 146.75128448486328 47.864288330078125 147.59107971191406 C47.86360646963446 149.31861447081278 47.86546116230298 151.04615177458874 47.86962890625 152.773681640625 C47.87497025389588 155.42274728445202 47.86968768357882 158.07164284015994 47.86328125 160.720703125 C47.86394216557645 162.39583370900905 47.86522360560707 164.07096418682863 47.8671875 165.74609375 C47.86516326904297 166.5419639587402 47.86313903808593 167.33783416748048 47.861053466796875 168.15782165527344 C47.88504455829988 173.7700891165997 47.88504455829988 173.7700891165997 49 176 C65.41108685949621 176.0233289540626 81.82216836559262 176.04097915608475 98.23326778411865 176.05181217193604 C105.85270172887246 176.05697513762823 113.47212538936455 176.06401784407996 121.091552734375 176.075439453125 C127.7302882745609 176.0853862759442 134.36901636941454 176.0918534229154 141.00775915384293 176.09408849477768 C144.52504336194465 176.0953956054219 148.04230626430288 176.09848147366773 151.55958366394043 176.1057300567627 C155.47974938462073 176.11374388901095 159.3998939924501 176.11399113928695 163.320068359375 176.113525390625 C164.49466613769533 176.11712066650392 165.6692639160156 176.12071594238284 166.87945556640625 176.12442016601563 C167.94101364135742 176.123045501709 169.00257171630858 176.12167083740235 170.09629821777344 176.12025451660156 C170.56042098522187 176.12071541309354 170.56042098522187 176.12071541309354 172.90916347503662 176.12304782867432 C175 176 175 176 176 175 C176.10103254810144 172.2000640254455 176.13970087657142 169.4253135641993 176.1328125 166.625 C176.1337692260742 165.7853369140625 176.13472595214844 164.945673828125 176.13571166992188 164.08056640625 C176.13639347521686 162.30175705237755 176.13453916509397 160.52294522626005 176.13037109375 158.744140625 C176.12502282644513 156.01166223832567 176.130316054961 153.27934823663452 176.13671875 150.546875 C176.136057968581 148.82291630157988 176.1347768060601 147.09895770597547 176.1328125 145.375 C176.13382461547852 144.96354736328124 176.13382461547852 144.96354736328124 176.13894653320313 142.88134765625 C176.11495054437074 137.11495054437074 176.11495054437074 137.11495054437074 175 136 C173.37008445355707 135.90176906760382 171.73590013840243 135.87368051086375 170.10302734375 135.87301635742188 C169.57297088623048 135.8716064453125 169.57297088623048 135.8716064453125 166.89056396484375 135.86447143554688 C165.7175372314453 135.8664956665039 164.54451049804686 135.86851989746094 163.3359375 135.87060546875 C162.7221926879883 135.86972930908203 162.7221926879883 135.86972930908203 159.61627197265625 135.86529541015625 C156.2403172147391 135.8616371652169 152.8644233866741 135.8625103569944 149.48847198486328 135.86567449569702 C145.96285415924103 135.86819843496806 142.43723901671063 135.86586046413797 138.91162109375 135.86428833007813 C132.98990407345747 135.86246673331422 127.06819950655535 135.8648726828482 121.146484375 135.86962890625 C114.2908319043176 135.87507151031866 107.4352091685077 135.87330884653207 100.57955741882324 135.8678025007248 C94.70355918524231 135.86327108758022 88.82756992631845 135.86262096007735 82.95157051086426 135.8652411699295 C79.43765907069736 135.86680378957186 75.92376162666916 135.86699812346757 72.40985107421875 135.86370468139648 C68.49457636835295 135.86029168148613 64.5793352289962 135.86501616846246 60.6640625 135.87060546875 C60.07754913330078 135.86959335327148 60.07754913330078 135.86959335327148 57.10943603515625 135.86447143554688 C56.04932312011718 135.86729125976564 54.98921020507812 135.87011108398437 53.89697265625 135.87301635742188 C52.97002593994141 135.87339338302613 52.043079223632816 135.87377040863038 51.088043212890625 135.87415885925293 C49 136 49 136 48 137 Z " fill="#000000" transform="translate(28,90)"/>
<path d="M0 0 C15.839999999999975 0 31.680000000000007 0 48 0 C48 74.57999999999998 48 149.16 48 226 C32.15999999999997 226 16.319999999999993 226 0 226 C0 151.42000000000002 0 76.84 0 0 Z " fill="#000000" transform="translate(281,90)"/>
<path d="M0 0 C15.839999999999975 0 31.680000000000007 0 48 0 C48.329999999999984 28.710000000000008 48.65999999999997 57.420000000000016 49 87 C56.09500000000003 87.18562500000002 63.19 87.37125 70.5 87.5625 C72.72427734375003 87.64443603515625 74.9485546875 87.7263720703125 77.240234375 87.810791015625 C91.22589925252737 88.10908742582563 91.22589925252737 88.10908742582563 96.15625 85.02685546875 C98.18929124548407 82.76192045620292 99.65869185010786 80.72197538828624 101 78 C101.32999999999998 77.34 101.65999999999997 76.68 102 76 C102.65999999999997 76 103.32 76 104 76 C104.10763671874997 75.73767578125 104.10763671874997 75.73767578125 104.65234375 74.41015625 C106.52861411426807 71.05462345361337 109.0349564909036 68.30919301985068 111.5625 65.4375 C112.65723638982075 64.17793996851543 113.75097798208043 62.91751466412214 114.84375 61.65625 C115.38257812500001 61.03492187500001 115.92140625000002 60.41359374999999 116.4765625 59.7734375 C119.28845586393987 56.500105225054625 121.99262235261392 53.14000371805042 124.7109375 49.7890625 C127.79254823801296 46.03433542330842 130.94978398407778 42.345819222487506 134.10546875 38.6533203125 C137.21800064535904 34.98877955535721 140.1358837337042 31.24064210431294 142.87890625 27.29296875 C143.06388671874998 27.079628906250008 143.06388671874998 27.079628906250008 144 26 C144.65999999999997 26 145.32 26 146 26 C146.21140624999998 25.47921875 146.42281249999996 24.958437500000002 146.640625 24.421875 C148.57440046840065 20.976642843653963 151.1412745954317 18.202313628584662 153.75 15.25 C154.78904405346645 14.069980120183786 155.82549446718792 12.887671540106297 156.859375 11.703125 C157.35913848876953 11.141637573242193 157.85890197753906 10.580150146484371 158.37380981445313 10.00164794921875 C160 7.999999999999957 160 7.999999999999957 161.19869995117188 5.91583251953125 C163.19638819058764 2.562275752882357 164.67651126652083 0.3646917079938419 168.5426025390625 -0.70062255859375 C171.71102239818242 -0.9264828801377973 174.7866220676708 -0.8997064642669841 177.9609375 -0.78125 C179.10664215087888 -0.7699304199218773 180.25234680175777 -0.7586108398437545 181.43276977539063 -0.7469482421875 C185.0819012459765 -0.7022656347113809 188.72706214378547 -0.6019057616968553 192.375 -0.5 C194.852807726739 -0.45986307536045956 197.330677216622 -0.42336270026922307 199.80859375 -0.390625 C205.87374400328008 -0.3025568445930844 211.93658837429575 -0.16879757133658302 218 0 C218.07793186524782 2.5630924570415488 218.13478355328004 5.123791439441405 218.1796875 7.6875 C218.20377685546873 8.408730468750008 218.22786621093746 9.129960937500002 218.252685546875 9.873046875 C218.326486066514 15.49472124054735 217.20571709662545 18.667988568033266 213.5078125 22.8125 C212 24 212 24 210 24 C209.89236328125003 24.262324218749995 209.89236328125003 24.262324218749995 209.34765625 25.58984375 C207.47140330745174 28.945345389281982 204.9651467776821 31.690921098853167 202.4375 34.5625 C201.34662387708306 35.81681122291606 200.25678992709993 37.07202954033849 199.16796875 38.328125 C198.6296240234375 38.948808593750016 198.09127929687497 39.5694921875 197.53662109375 40.208984375 C195.39429188492056 42.70598581700392 193.3197098277285 45.25516220238785 191.25 47.8125 C187.80038481454335 52.06786471782601 184.22097955229583 56.17420299123091 180.53125 60.22265625 C179 62 179 62 178 64 C177.34000000000003 64 176.68000000000006 64 176 64 C175.73187499999995 64.57234375000002 175.46375 65.1446875 175.1875 65.734375 C173.9586736406668 68.0788463434647 172.57477823856993 70.12404937793065 171 72.25 C170.484375 72.95640624999999 169.96875 73.6628125 169.4375 74.390625 C168.963125 74.92171875 168.48874999999998 75.4528125 168 76 C167.34000000000003 76 166.68000000000006 76 166 76 C165.786015625 76.52335937499998 165.57203125 77.04671875 165.3515625 77.5859375 C163.4503054430669 80.98182438203668 160.9409102514221 83.71339036681132 158.375 86.625 C153.91724191182425 91.73472030028927 149.63453494479126 96.90995625388149 145.5234375 102.3046875 C145.020703125 102.864140625 144.51796875000002 103.42359375000001 144 104 C143.34000000000003 104 142.68 104 142 104 C141.690625 104.639375 141.38125000000002 105.27875 141.0625 105.9375 C140 108 140 108 139 109 C138.75 111.87499999999994 138.75 111.87499999999994 139 115 C140.5 116.75 140.5 116.75 142 118 C142 118.66 142 119.32 142 120 C142.65999999999997 120 143.32 120 144 120 C145.48828125 121.66015625 145.48828125 121.66015625 147.3125 124.0625 C150.85098447354068 128.60099095519348 154.52760911315931 132.9776867313654 158.3125 137.3125 C159.42721320290252 138.59363701246943 160.54179591210448 139.8748875784278 161.65625 141.15625 C162.20925781250003 141.7917578125 162.76226562500005 142.427265625 163.33203125 143.08203125 C166.0011869548723 146.15124776309682 168.6646533820791 149.22487262892966 171.3125 152.3125 C171.7866333007812 152.85753173828124 172.26076660156252 153.4025634765625 172.749267578125 153.964111328125 C176 157.77096229600448 176 157.77096229600448 176 160 C176.65999999999997 160 177.31999999999994 160 178 160 C179.9453125 162.11718750000003 179.9453125 162.11718750000003 182.125 164.875 C182.84945312499997 165.779921875 183.57390624999994 166.68484375000003 184.3203125 167.6171875 C186 170 186 170 186 172 C186.65999999999997 172 187.31999999999994 172 188 172 C189.33271879647873 173.4669055860556 190.58913869037974 175.0032250098161 191.8125 176.5625 C195.0876866838414 180.66176591396925 198.42018903393887 184.68066256683323 201.875 188.6298828125 C203.00404911365843 189.92293153699654 204.12642648963708 191.22183498294197 205.2421875 192.5263671875 C207.62291679038094 195.30905610333036 209.98603944546528 197.98637383000505 212.609375 200.546875 C217.10816292711343 205.17328811653516 218.36200844407097 208.5160643012489 218.2801513671875 214.8543701171875 C218.25344360351562 215.66942016601558 218.22673583984374 216.48447021484378 218.19921875 217.32421875 C218.19202819824216 217.74177429199221 218.19202819824216 217.74177429199221 218.1556396484375 219.8548583984375 C218.11828407434416 221.90355527567374 218.06112019185025 223.95187435545046 218 226 C210.79733935897855 226.35711083555645 203.59697991015855 226.60096629797135 196.387451171875 226.76904296875 C193.93964376328177 226.839141841421 191.49241628439222 226.93446168557506 189.046630859375 227.05615234375 C169.2678402550073 228.0150751719919 169.2678402550073 228.0150751719919 163.83712768554688 224.66629028320313 C160.3870475264854 221.50212997799065 158.0809624727849 217.86201325982734 155.94873046875 213.72659301757813 C154.51316353482775 211.11400711882243 152.6251030365171 208.94028336238512 150.6875 206.6875 C149.98109375 205.82640625 149.27468750000003 204.96531249999998 148.546875 204.078125 C146.48153037842997 201.58197229785708 144.40696936101278 199.09426017211604 142.328125 196.609375 C141.68657470703124 195.83891845703124 141.04502441406248 195.06846191406248 140.384033203125 194.274658203125 C139.10026407441205 192.73326577001717 137.8124222503149 191.1952549960762 136.520263671875 189.660888671875 C136.22752563476564 189.3088537597656 136.22752563476564 189.3088537597656 134.74609375 187.52734375 C134.48147338867187 187.21148315429684 134.48147338867187 187.21148315429684 133.142333984375 185.613037109375 C132 184 132 184 132 182 C131.34000000000003 182 130.68 182 130 182 C128.151526891287 179.8270766999026 126.40786510254304 177.64597332261326 124.6875 175.375 C123.73394877233642 174.13214003251466 122.77952762545146 172.88994698246086 121.82421875 171.6484375 C121.59114013671876 171.34341308593753 121.59114013671876 171.34341308593753 120.41162109375 169.7998046875 C119.03457380303848 168.04408129989622 117.6014874685444 166.35365924268984 116.14453125 164.6640625 C114 162 114 162 114 160 C113.34000000000003 160 112.68 160 112 160 C110.19453251268891 157.8681710597587 108.49338993743646 155.72688994229455 106.8125 153.5 C103.089618729682 148.64561277176242 99.31047084307482 143.94102245389794 95.14453125 139.453125 C94 138 94 138 94 136 C78.82 136 63.639999999999986 136 48 136 C48 165.7 48 195.39999999999998 48 226 C32.15999999999997 226 16.319999999999993 226 0 226 C0 151.42000000000002 0 76.84 0 0 Z " fill="#000000" transform="translate(360,90)"/>
<path d="M0 0 C0.6173778533935774 -0.0035776519775367888 0.6173778533935774 -0.0035776519775367888 3.7416839599609375 -0.0216827392578125 C5.097152456482718 -0.024522487435277185 6.452621225950338 -0.027234277466064327 7.8080902099609375 -0.0298309326171875 C9.245993667303082 -0.036102589952335506 10.683895527298546 -0.04275000519069749 12.121795654296875 -0.04974365234375 C16.831587608823156 -0.07070724619713076 21.541379590972042 -0.08114051501220843 26.251205444335938 -0.0911102294921875 C27.878570086267814 -0.09516100787055848 29.505934564633435 -0.09927802346108194 31.133298873901367 -0.10346031188964844 C38.78300270366253 -0.12249701790312884 46.43269699197401 -0.13672984136162825 54.08241993188858 -0.14507228136062622 C62.88399233236726 -0.1548318298211484 71.68531239197569 -0.18112409968769327 80.48679596185684 -0.22157317399978638 C87.3082971579264 -0.25183625903284224 94.1297264396793 -0.26655086571976483 100.9512934088707 -0.26985329389572144 C105.01671096589428 -0.2721926103251917 109.08185849937786 -0.28100569689983956 113.14720344543457 -0.30631446838378906 C116.97801455137767 -0.3297789153870099 120.80838134665896 -0.3337557249593033 124.63924598693848 -0.32355308532714844 C126.03511797896408 -0.3230620026704827 127.43101324088707 -0.3292542804034895 128.8268165588379 -0.343109130859375 C141.99834058913893 -0.46639770391536217 153.2636247422538 1.9156927910213 163.74729919433594 10.147171020507813 C164.44597106933588 10.648616333007809 165.14464294433594 11.150061645507805 165.86448669433594 11.666702270507813 C174.12931104854476 18.07583964707355 178.75030175000563 28.53246241230775 180.2896270751953 38.74531555175781 C181.08366865252037 46.38657525176373 180.93501692257064 54.09413640767647 180.96849060058594 61.76826477050781 C180.9797207090295 63.55120083575392 180.99135356504053 65.3341344026328 181.00335693359375 67.1170654296875 C181.03453554082216 71.93667545062789 181.05973498085973 76.75629927541101 181.08355379104614 81.5759506225586 C181.10402787083171 85.6000668136574 181.12754596992227 89.62416280920343 181.1510909795761 93.64826202392578 C181.20658138906174 103.1330672429145 181.25733649913525 112.6178894448816 181.30491638183594 122.10273742675781 C181.35412169985898 131.89874720433681 181.41042798634282 141.69469760983998 181.47033751010895 151.490647315979 C181.5215828032011 159.90179645256555 181.56893613708382 168.31296095434578 181.61302506923676 176.7241506576538 C181.63936993232846 181.74813786428638 181.66710960935518 186.77210721422944 181.6983985900879 191.7960662841797 C181.72755347030375 196.51070987228377 181.75184633730203 201.22535336813962 181.7722988128662 205.94004249572754 C181.7806362152519 207.67475108999736 181.79070640952193 209.4094523007626 181.80258750915527 211.14414024353027 C181.81845891878788 213.50143878824076 181.82821010705834 215.858682588266 181.83631896972656 218.2160186767578 C181.83937980473047 218.56362353801728 181.83937980473047 218.56362353801728 181.85486948490143 220.32271480560303 C181.85711616658193 221.93126500544616 181.80787900073324 223.53976040711404 181.74729919433594 225.1471710205078 C180.74729919433594 226.1471710205078 180.74729919433594 226.1471710205078 178.76681518554688 226.26742553710938 C177.89855606079095 226.2652049255371 177.03029693603514 226.2629843139648 176.13572692871094 226.2606964111328 C175.63837036132816 226.2606359863281 175.63837036132816 226.2606359863281 173.12144470214844 226.2603302001953 C172.06856262207032 226.25521423339842 171.0156805419922 226.25009826660153 169.93089294433594 226.2448272705078 C168.96864807128907 226.2438201904297 168.0064031982422 226.24281311035156 167.01499938964844 226.2417755126953 C163.4049206136997 226.23652562413224 159.79485876283695 226.22256449790092 156.18479919433594 226.2096710205078 C148.1204241943359 226.18904602050782 140.05604919433597 226.16842102050782 131.74729919433594 226.1471710205078 C131.74729919433594 201.7271710205078 131.74729919433594 177.30717102050778 131.74729919433594 152.1471710205078 C89.50729919433593 152.47717102050783 47.26729919433592 152.8071710205078 3.7472991943359375 153.1471710205078 C3.4172991943358966 177.23717102050784 3.0872991943359693 201.32717102050782 2.7472991943359375 226.1471710205078 C-13.422700805664022 226.1471710205078 -29.592700805664094 226.1471710205078 -46.25270080566406 226.1471710205078 C-46.32051552664211 202.38106734398116 -46.37573946294117 178.61504244487503 -46.40813732147217 154.84886646270752 C-46.423582444497356 143.81293070074244 -46.444626835514214 132.77705948502563 -46.47901916503906 121.74116516113281 C-46.50899372688036 112.1182380502778 -46.528292910523305 102.49535770593286 -46.5349662899971 92.87238520383835 C-46.53886491821686 87.78076840143706 -46.547977901545096 82.6892853486838 -46.56989097595215 77.59771156311035 C-46.590383574222415 72.79690380968387 -46.59650898381403 67.9962838185698 -46.592023849487305 63.19543647766113 C-46.592843369960406 61.441586575882155 -46.59873243239906 59.68772983126189 -46.61031723022461 57.93391799926758 C-46.70734729790547 42.47514250777607 -45.64407038156844 25.931346443857137 -34.25270080566406 14.147171020507813 C-33.592700805664094 14.147171020507813 -32.93270080566401 14.147171020507813 -32.25270080566406 14.147171020507813 C-32.25270080566406 13.487171020507816 -32.25270080566406 12.82717102050782 -32.25270080566406 12.147171020507813 C-31.592700805664094 12.147171020507813 -30.932700805664012 12.147171020507813 -30.252700805664063 12.147171020507813 C-30.252700805664063 11.487171020507816 -30.252700805664063 10.82717102050782 -30.252700805664063 10.147171020507813 C-21.090049120068215 3.4066137354075607 -11.354381666858899 0.045391306076453475 0 0 Z M2.7472991943359375 48.14717102050781 C2.648547497289883 49.82972336700564 2.619310151286186 51.51641130360133 2.6179046630859375 53.20185852050781 C2.6147525024414335 54.27967590332031 2.6116003417969296 55.35749328613281 2.6083526611328125 56.46797180175781 C2.610376892089789 57.640857543945316 2.6124011230468795 58.81374328613282 2.6144866943359375 60.02217102050781 C2.6135299682616733 61.21697082519532 2.6125732421875227 62.411770629882824 2.6115875244140625 63.64277648925781 C2.6109054840989074 66.17484082527409 2.6127614179283682 68.70690689591476 2.6169281005859375 71.23896789550781 C2.6222759857666915 75.13028362153628 2.616983869321075 79.0214839141826 2.6105804443359375 82.91279602050781 C2.611241221512614 85.36592127707738 2.6125223751087105 87.81904646140038 2.6144866943359375 90.27217102050781 C2.612462463378961 91.44505676269532 2.6104382324218705 92.61794250488282 2.6083526611328125 93.82637023925781 C2.6115048217773165 94.90418762207031 2.6146569824218204 95.98200500488281 2.6179046630859375 97.09248352050781 C2.6187002563476653 98.04655090332031 2.619495849609393 99.0006182861328 2.6203155517578125 99.98359680175781 C2.7472991943359375 102.14717102050781 2.7472991943359375 102.14717102050781 3.7472991943359375 103.14717102050781 C5.404875398058834 103.2432852066718 7.066569059023436 103.26904856707216 8.7269287109375 103.26742553710938 C9.266121902465784 103.2681128692627 9.266121902465784 103.2681128692627 11.994766235351563 103.27159118652344 C13.188065490722693 103.26799591064452 14.381364746093709 103.26440063476562 15.610824584960938 103.26069641113281 C16.85942764282231 103.26084243774415 18.10803070068357 103.26098846435548 19.39447021484375 103.26113891601563 C22.828209132950406 103.26055993279905 26.26188857764464 103.25553056656486 29.695616960525513 103.24856495857239 C33.28042378182374 103.24233099878862 36.86523131935985 103.24172758856321 40.450042724609375 103.24053955078125 C47.24279964445782 103.23742635901024 54.03554054864128 103.22921313617303 60.82829040288925 103.21919006109238 C68.55972413246081 103.20802854680628 76.29115861051196 103.20251837785403 84.02259838581085 103.19749462604523 C99.93084127740099 103.18703051130359 115.8390681740002 103.16943130663378 131.74729919433594 103.14717102050781 C131.77256482410598 95.33264350348236 131.79013024819517 87.51812643823945 131.80223083496094 79.70356750488281 C131.80727302275704 77.04275620947493 131.8141065540683 74.38194770076137 131.82273864746094 71.72114562988281 C131.8348092795154 67.90611586349215 131.84052848629165 64.09112258382874 131.84495544433594 60.27607727050781 C131.85011672973633 59.078180694580084 131.85527801513672 57.880284118652355 131.860595703125 56.646087646484375 C131.8606712341309 55.54502182006837 131.8607467651367 54.44395599365234 131.86082458496094 53.30952453613281 C131.86304519653322 52.334676055908204 131.8652658081055 51.359827575683596 131.8675537109375 50.355438232421875 C131.74729919433594 48.14717102050781 131.74729919433594 48.14717102050781 130.74729919433594 47.14717102050781 C129.10471218843236 47.04891133725812 127.45788586927574 47.02085139419199 125.81236267089844 47.02018737792969 C125.27809913635247 47.01877746582031 125.27809913635247 47.01877746582031 122.57440185546875 47.01164245605469 C121.9832131195069 47.012654571533204 121.9832131195069 47.012654571533204 118.99143981933594 47.01777648925781 C118.37281822204591 47.016900329589845 118.37281822204591 47.016900329589845 115.24221801757813 47.01246643066406 C111.83940478150498 47.008808156738354 108.43665199344775 47.00968139629103 105.03384208679199 47.012845516204834 C101.48019705130855 47.01536943216445 97.92655467793588 47.01303149118519 94.37290954589844 47.01145935058594 C88.40411411281536 47.00963774698448 82.4353310348431 47.012043721281174 76.46653747558594 47.01679992675781 C69.5563535107724 47.022242532017145 62.64619904616586 47.02047986871969 55.73601579666138 47.014973521232605 C49.81330884077818 47.010442127551585 43.89061078879308 47.00979197103999 37.96790266036987 47.01241219043732 C34.426045581908625 47.0139748208031 30.88420238918684 47.014169114711535 27.34234619140625 47.0108757019043 C23.395938562828633 47.007462737272874 19.449564236619608 47.01218715727481 15.503158569335938 47.01777648925781 C14.320781097412123 47.01575225830078 13.138403625488309 47.013728027343745 11.920196533203125 47.01164245605469 C11.385932998657267 47.01305236816407 11.385932998657267 47.01305236816407 8.682235717773438 47.02018737792969 C7.747914657592787 47.02056440353394 6.813593597412137 47.02094142913819 5.850959777832031 47.02132987976074 C3.7472991943359375 47.14717102050781 3.7472991943359375 47.14717102050781 2.7472991943359375 48.14717102050781 Z " fill="#000000" transform="translate(650.2527008056641,89.85282897949219)"/>
<path d="M0 0 C15.840000000000032 0 31.67999999999995 0 48 0 C48 74.57999999999998 48 149.16 48 226 C32.15999999999997 226 16.32000000000005 226 0 226 C0 151.42000000000002 0 76.84 0 0 Z " fill="#000000" transform="translate(860,90)"/>
</g>
</svg>
